
<svg width="39" height="30" viewBox="0 0 39 30" fill="none" xmlns="http://www.w3.org/2000/svg">
<path d="M24.089 24.4862C28.7428 19.4491 37.4818 6.68691 37.8515 6.14611C37.9951 5.93604 38.0373 5.67162 37.9661 5.4265C37.8951 5.18149 37.7184 4.98201 37.4852 4.88349C37.2558 4.78671 31.7901 2.50072 25.0325 1.47733C21.0346 0.87185 17.4227 0.842297 14.2969 1.38923C10.3163 2.08591 7.11281 3.72192 4.77529 6.25196C0.404107 10.9832 0.0967739 18.0984 3.70201 23.1653C2.64307 24.7473 1.76093 26.3039 1.07755 27.7978C0.921832 28.1383 1.0087 28.5293 1.26578 28.772C1.32926 28.8319 1.40315 28.8828 1.48624 28.9216C1.90613 29.1179 2.40381 28.9329 2.59794 28.5085C3.18426 27.2269 3.92899 25.8915 4.81585 24.5289C5.00762 24.7344 5.20611 24.9355 5.41313 25.131C10.7379 30.1582 19.1159 29.8689 24.089 24.4862ZM5.9995 7.40773C10.7499 2.2661 18.8192 2.25282 24.752 3.14697C28.6438 3.73353 32.1533 4.77753 34.3759 5.53427C31.3345 6.20199 25.1468 7.75317 19.9847 10.2727C19.5681 10.476 19.3935 10.9822 19.5946 11.4033C19.641 11.5004 19.7033 11.5845 19.7769 11.6539C20.0222 11.8856 20.3925 11.954 20.713 11.7976C25.9026 9.26459 32.3549 7.70433 35.1443 7.103C32.4649 10.9448 26.3742 19.5318 22.8648 23.3303C18.5222 28.0306 11.2062 28.2832 6.55641 23.8933C1.90663 19.5034 1.65684 12.1081 5.9995 7.40773Z" fill="#4C6A4B"/>
<path d="M24.089 24.4862L24.4563 24.8255L24.089 24.4862ZM37.8515 6.14611L37.4387 5.86386L37.4387 5.86394L37.8515 6.14611ZM37.9661 5.4265L37.4859 5.56572L37.4859 5.56589L37.9661 5.4265ZM37.4852 4.88349L37.6798 4.42291L37.6796 4.42282L37.4852 4.88349ZM25.0325 1.47733L24.9576 1.9717L24.9576 1.9717L25.0325 1.47733ZM14.2969 1.38923L14.2108 0.896717L14.2107 0.896721L14.2969 1.38923ZM4.77529 6.25196L4.40804 5.91265L4.77529 6.25196ZM3.70201 23.1653L4.11752 23.4434L4.30949 23.1566L4.10941 22.8754L3.70201 23.1653ZM1.07755 27.7978L0.622866 27.5898L0.622857 27.5899L1.07755 27.7978ZM1.26578 28.772L1.60903 28.4084H1.60903L1.26578 28.772ZM1.48624 28.9216L1.69794 28.4686L1.6979 28.4686L1.48624 28.9216ZM2.59794 28.5085L2.14326 28.3005L2.14324 28.3005L2.59794 28.5085ZM4.81585 24.5289L5.1814 24.1877L4.74538 23.7205L4.39679 24.2561L4.81585 24.5289ZM5.41313 25.131L5.75637 24.7674L5.41313 25.131ZM5.9995 7.40773L6.36675 7.74704H6.36675L5.9995 7.40773ZM24.752 3.14697L24.8265 2.65255L24.8265 2.65255L24.752 3.14697ZM34.3759 5.53427L34.4831 6.02264L36.2331 5.63843L34.537 5.06095L34.3759 5.53427ZM19.9847 10.2727L20.204 10.7221L20.204 10.7221L19.9847 10.2727ZM19.5946 11.4033L19.1434 11.6188L19.1435 11.6189L19.5946 11.4033ZM19.7769 11.6539L19.4336 12.0175L19.7769 11.6539ZM20.713 11.7976L20.4937 11.3482L20.4936 11.3482L20.713 11.7976ZM35.1443 7.103L35.5544 7.38902L36.2816 6.34633L35.0389 6.61423L35.1443 7.103ZM22.8648 23.3303L23.2321 23.6696L22.8648 23.3303ZM9.22799 20.8189C9.07596 21.0494 9.1396 21.3595 9.37012 21.5115C9.60064 21.6636 9.91077 21.5999 10.0628 21.3694L9.22799 20.8189ZM18.4544 21.0376C18.7306 21.0376 18.9544 20.8137 18.9544 20.5376C18.9544 20.2614 18.7306 20.0376 18.4544 20.0376V21.0376ZM9.61713 11.8535C9.39708 11.6867 9.08345 11.7298 8.91662 11.9498C8.74979 12.1699 8.79293 12.4835 9.01298 12.6504L9.61713 11.8535ZM12.5366 15.3218C12.7566 15.4886 13.0703 15.4455 13.2371 15.2254C13.4039 15.0054 13.3608 14.6918 13.1407 14.5249L12.5366 15.3218ZM12.2912 12.3573C12.4693 12.1462 12.4426 11.8308 12.2316 11.6527C12.0206 11.4746 11.7051 11.5012 11.527 11.7122L12.2912 12.3573ZM8.93837 14.779C8.76026 14.99 8.78693 15.3055 8.99794 15.4836C9.20896 15.6617 9.52442 15.6351 9.70254 15.4241L8.93837 14.779ZM18.3206 13.8987C18.0748 13.773 17.7735 13.8705 17.6479 14.1163C17.5222 14.3622 17.6196 14.6634 17.8655 14.7891L18.3206 13.8987ZM21.7961 16.7983C22.0419 16.924 22.3432 16.8266 22.4688 16.5807C22.5945 16.3348 22.4971 16.0336 22.2512 15.9079L21.7961 16.7983ZM21.1002 14.5835C21.2783 14.3725 21.2517 14.057 21.0407 13.8789C20.8296 13.7008 20.5142 13.7274 20.3361 13.9384L21.1002 14.5835ZM17.7474 17.0052C17.5693 17.2163 17.596 17.5317 17.807 17.7098C18.018 17.8879 18.3335 17.8613 18.5116 17.6503L17.7474 17.0052ZM24.4563 24.8255C29.141 19.7549 37.9039 6.95546 38.2642 6.42828L37.4387 5.86394C37.0597 6.41836 28.3446 19.1433 23.7218 24.1469L24.4563 24.8255ZM38.2642 6.42835C38.4925 6.09451 38.559 5.67534 38.4463 5.28711L37.4859 5.56589C37.5155 5.66789 37.4977 5.77758 37.4387 5.86386L38.2642 6.42835ZM38.4463 5.28727C38.3337 4.89885 38.0529 4.58056 37.6798 4.42291L37.2906 5.34408C37.3838 5.38346 37.4564 5.46414 37.4859 5.56572L38.4463 5.28727ZM37.6796 4.42282C37.4349 4.31957 31.925 2.01545 25.1073 0.982972L24.9576 1.9717C31.6553 2.986 37.0767 5.25384 37.2908 5.34417L37.6796 4.42282ZM25.1073 0.982972C21.07 0.371503 17.4021 0.338315 14.2108 0.896717L14.3831 1.88175C17.4434 1.34628 20.9993 1.3722 24.9576 1.9717L25.1073 0.982972ZM14.2107 0.896721C10.1416 1.60889 6.83227 3.28876 4.40804 5.91265L5.14254 6.59126C7.39335 4.15507 10.491 2.56293 14.3831 1.88175L14.2107 0.896721ZM4.40804 5.91265C-0.127396 10.8216 -0.444644 18.1999 3.29461 23.4552L4.10941 22.8754C0.638192 17.9968 0.93561 11.1447 5.14254 6.59126L4.40804 5.91265ZM3.2865 22.8872C2.21498 24.488 1.31902 26.0679 0.622866 27.5898L1.53224 28.0058C2.20284 26.5398 3.07117 25.0067 4.11752 23.4434L3.2865 22.8872ZM0.622857 27.5899C0.375945 28.1297 0.513507 28.7494 0.922535 29.1355L1.60903 28.4084C1.50389 28.3092 1.46772 28.1469 1.53225 28.0058L0.622857 27.5899ZM0.922535 29.1355C1.02427 29.2316 1.14246 29.3129 1.27458 29.3746L1.6979 28.4686C1.66384 28.4527 1.63424 28.4322 1.60903 28.4084L0.922535 29.1355ZM1.27454 29.3746C1.94902 29.6898 2.74435 29.3905 3.05264 28.7164L2.14324 28.3005C2.06327 28.4754 1.86325 28.5459 1.69794 28.4686L1.27454 29.3746ZM3.05262 28.7165C3.6272 27.4605 4.35942 26.1468 5.23491 24.8016L4.39679 24.2561C3.49856 25.6363 2.74131 26.9932 2.14326 28.3005L3.05262 28.7165ZM4.4503 24.87C4.64841 25.0823 4.85434 25.2911 5.06988 25.4946L5.75637 24.7674C5.55788 24.58 5.36682 24.3864 5.1814 24.1877L4.4503 24.87ZM5.06988 25.4946C10.5973 30.713 19.2945 30.4123 24.4563 24.8255L23.7218 24.1469C18.9372 29.3255 10.8786 29.6033 5.75637 24.7674L5.06988 25.4946ZM6.36675 7.74704C8.64213 5.28425 11.7289 4.03072 15.011 3.5077C18.2946 2.98447 21.7394 3.19857 24.6775 3.64138L24.8265 2.65255C21.8319 2.20122 18.2756 1.97489 14.8537 2.52016C11.4304 3.06566 8.10724 4.38959 5.63225 7.06843L6.36675 7.74704ZM24.6775 3.64138C28.5298 4.222 32.0088 5.25651 34.2147 6.00759L34.537 5.06095C32.2978 4.29854 28.7577 3.24506 24.8265 2.65255L24.6775 3.64138ZM34.2687 5.0459C31.2177 5.71571 24.9827 7.27692 19.7654 9.82339L20.204 10.7221C25.311 8.22943 31.4512 6.68828 34.4831 6.02264L34.2687 5.0459ZM19.7654 9.82338C19.0992 10.1485 18.8255 10.953 19.1434 11.6188L20.0458 11.1879C19.9616 11.0115 20.037 10.8036 20.204 10.7221L19.7654 9.82338ZM19.1435 11.6189C19.2168 11.7722 19.3158 11.9063 19.4336 12.0175L20.1201 11.2904C20.0908 11.2627 20.0653 11.2286 20.0457 11.1877L19.1435 11.6189ZM19.4336 12.0175C19.8246 12.3866 20.4178 12.4981 20.9323 12.2469L20.4936 11.3482C20.3673 11.4099 20.2198 11.3845 20.1201 11.2904L19.4336 12.0175ZM20.9323 12.2469C26.0647 9.74188 32.4672 8.19161 35.2497 7.59177L35.0389 6.61423C32.2426 7.21706 25.7406 8.78729 20.4937 11.3482L20.9323 12.2469ZM34.7342 6.81697C32.048 10.6686 25.9786 19.2232 22.4976 22.991L23.2321 23.6696C26.7698 19.8404 32.8818 11.2211 35.5544 7.38902L34.7342 6.81697ZM22.4976 22.991C18.3435 27.4872 11.3468 27.7284 6.89966 23.5297L6.21316 24.2569C11.0655 28.838 18.7008 28.574 23.2321 23.6696L22.4976 22.991ZM6.89966 23.5297C2.4494 19.3282 2.20982 12.2463 6.36675 7.74704L5.63225 7.06843C1.10386 11.9698 1.36387 19.6786 6.21316 24.2569L6.89966 23.5297ZM9.64539 21.0941C10.0628 21.3694 10.0627 21.3696 10.0625 21.3698C10.0625 21.3698 10.0624 21.37 10.0623 21.3701C10.0622 21.3704 10.062 21.3706 10.0619 21.3707C10.0617 21.3711 10.0615 21.3713 10.0614 21.3715C10.0612 21.3718 10.0612 21.3717 10.0615 21.3713C10.0621 21.3705 10.0637 21.3682 10.0662 21.3646C10.0713 21.3575 10.0802 21.3452 10.0927 21.3288C10.118 21.2958 10.1574 21.2472 10.2099 21.1906C10.3164 21.0758 10.4674 20.9383 10.6525 20.8314C10.8357 20.7256 11.0426 20.655 11.2713 20.655C11.4961 20.655 11.7787 20.723 12.1188 20.9522L12.6776 20.1229C12.1919 19.7956 11.7174 19.655 11.2713 19.655C10.829 19.655 10.4509 19.793 10.1523 19.9655C9.85568 20.1368 9.62819 20.3472 9.47665 20.5106C9.40003 20.5933 9.34055 20.6663 9.29913 20.7203C9.27837 20.7474 9.26199 20.7699 9.25013 20.7867C9.24419 20.7951 9.23937 20.802 9.23568 20.8074C9.23383 20.8101 9.23227 20.8125 9.23099 20.8144C9.23035 20.8153 9.22978 20.8162 9.22928 20.8169C9.22903 20.8173 9.2288 20.8176 9.22858 20.818C9.22847 20.8181 9.22833 20.8183 9.22827 20.8184C9.22813 20.8186 9.22799 20.8189 9.64539 21.0941ZM12.1188 20.9522C12.9839 21.5352 13.7488 21.8572 14.4759 21.9389C15.2136 22.0217 15.862 21.8516 16.4777 21.5404L16.0266 20.6479C15.5412 20.8932 15.0885 21.0014 14.5875 20.9451C14.0757 20.8876 13.4643 20.6531 12.6776 20.1229L12.1188 20.9522ZM16.4777 21.5404C16.9706 21.2912 17.4695 21.1642 17.8493 21.1002C18.038 21.0684 18.1942 21.0527 18.3012 21.045C18.3546 21.0411 18.3955 21.0393 18.4218 21.0384C18.4349 21.0379 18.4444 21.0377 18.4499 21.0376C18.4527 21.0376 18.4545 21.0376 18.4553 21.0376C18.4556 21.0376 18.4558 21.0376 18.4556 21.0376C18.4556 21.0376 18.4554 21.0376 18.4552 21.0376C18.4551 21.0376 18.455 21.0376 18.4549 21.0376C18.4548 21.0376 18.4547 21.0376 18.4547 21.0376C18.4546 21.0376 18.4544 21.0376 18.4544 20.5376C18.4544 20.0376 18.4543 20.0376 18.4542 20.0376C18.4541 20.0376 18.454 20.0376 18.4539 20.0376C18.4537 20.0376 18.4535 20.0376 18.4532 20.0376C18.4528 20.0376 18.4522 20.0376 18.4516 20.0376C18.4504 20.0376 18.449 20.0376 18.4472 20.0376C18.4438 20.0376 18.4392 20.0377 18.4336 20.0378C18.4225 20.038 18.4072 20.0383 18.3881 20.039C18.3499 20.0402 18.2962 20.0427 18.2292 20.0476C18.0953 20.0572 17.9074 20.0763 17.6832 20.1141C17.2371 20.1892 16.6349 20.3405 16.0266 20.6479L16.4777 21.5404ZM9.01298 12.6504L12.5366 15.3218L13.1407 14.5249L9.61713 11.8535L9.01298 12.6504ZM11.527 11.7122L8.93837 14.779L9.70254 15.4241L12.2912 12.3573L11.527 11.7122ZM17.8655 14.7891L21.7961 16.7983L22.2512 15.9079L18.3206 13.8987L17.8655 14.7891ZM20.3361 13.9384L17.7474 17.0052L18.5116 17.6503L21.1002 14.5835L20.3361 13.9384Z" fill="#4C6A4B"/>
</svg>
