<svg width="25" height="25" viewBox="0 0 25 25" fill="none" xmlns="http://www.w3.org/2000/svg">
<mask id="mask0_201_82" style="mask-type:alpha" maskUnits="userSpaceOnUse" x="0" y="0" width="25" height="25">
<rect width="25" height="25" fill="#D9D9D9"/>
</mask>
<g mask="url(#mask0_201_82)">
<path d="M3.125 11.4583V3.125H11.4583V11.4583H3.125ZM5.20833 9.375H9.375V5.20833H5.20833V9.375ZM3.125 21.875V13.5417H11.4583V21.875H3.125ZM5.20833 19.7917H9.375V15.625H5.20833V19.7917ZM13.5417 11.4583V3.125H21.875V11.4583H13.5417ZM15.625 9.375H19.7917V5.20833H15.625V9.375ZM19.7917 21.875V19.7917H21.875V21.875H19.7917ZM13.5417 15.625V13.5417H15.625V15.625H13.5417ZM15.625 17.7083V15.625H17.7083V17.7083H15.625ZM13.5417 19.7917V17.7083H15.625V19.7917H13.5417ZM15.625 21.875V19.7917H17.7083V21.875H15.625ZM17.7083 19.7917V17.7083H19.7917V19.7917H17.7083ZM17.7083 15.625V13.5417H19.7917V15.625H17.7083ZM19.7917 17.7083V15.625H21.875V17.7083H19.7917Z" fill="#2D452F"/>
</g>
</svg>
