<svg width="25" height="25" viewBox="0 0 25 25" fill="none" xmlns="http://www.w3.org/2000/svg">
<mask id="mask0_30_56" style="mask-type:alpha" maskUnits="userSpaceOnUse" x="0" y="0" width="25" height="25">
<rect width="25" height="25" fill="#D9D9D9"/>
</mask>
<g mask="url(#mask0_30_56)">
<path d="M12.5 14.5833C11.9271 14.5833 11.4368 14.3791 11.0291 13.9708C10.6208 13.5632 10.4166 13.0729 10.4166 12.5C10.4166 11.9271 10.6208 11.4364 11.0291 11.0281C11.4368 10.6205 11.9271 10.4166 12.5 10.4166C13.0729 10.4166 13.5635 10.6205 13.9719 11.0281C14.3795 11.4364 14.5833 11.9271 14.5833 12.5C14.5833 13.0729 14.3795 13.5632 13.9719 13.9708C13.5635 14.3791 13.0729 14.5833 12.5 14.5833ZM5.13019 19.8698C4.19269 18.9149 3.45067 17.808 2.90415 16.5489C2.35692 15.2906 2.08331 13.941 2.08331 12.5C2.08331 11.0416 2.35692 9.68297 2.90415 8.42394C3.45067 7.1656 4.19269 6.06769 5.13019 5.13019L6.61456 6.61456C5.85067 7.37845 5.25172 8.26387 4.81769 9.27081C4.38366 10.2778 4.16665 11.3541 4.16665 12.5C4.16665 13.6632 4.38366 14.7482 4.81769 15.7552C5.25172 16.7621 5.85067 17.6389 6.61456 18.3854L5.13019 19.8698ZM8.0729 16.9271C7.51734 16.3541 7.07463 15.6899 6.74477 14.9344C6.41491 14.1795 6.24998 13.368 6.24998 12.5C6.24998 11.6146 6.41491 10.7941 6.74477 10.0385C7.07463 9.28366 7.51734 8.62845 8.0729 8.0729L9.55727 9.55727C9.17533 9.93922 8.87567 10.3819 8.65831 10.8854C8.44165 11.3889 8.33331 11.9271 8.33331 12.5C8.33331 13.0729 8.44165 13.6111 8.65831 14.1146C8.87567 14.618 9.17533 15.0607 9.55727 15.4427L8.0729 16.9271ZM16.9271 16.9271L15.4427 15.4427C15.8246 15.0607 16.1243 14.618 16.3416 14.1146C16.5583 13.6111 16.6666 13.0729 16.6666 12.5C16.6666 11.9271 16.5583 11.3889 16.3416 10.8854C16.1243 10.3819 15.8246 9.93922 15.4427 9.55727L16.9271 8.0729C17.4826 8.62845 17.9253 9.28366 18.2552 10.0385C18.5851 10.7941 18.75 11.6146 18.75 12.5C18.75 13.368 18.5851 14.1795 18.2552 14.9344C17.9253 15.6899 17.4826 16.3541 16.9271 16.9271ZM19.8698 19.8698L18.3854 18.3854C19.1493 17.6215 19.7482 16.7361 20.1823 15.7291C20.6163 14.7222 20.8333 13.6458 20.8333 12.5C20.8333 11.3368 20.6163 10.2517 20.1823 9.24477C19.7482 8.23783 19.1493 7.36109 18.3854 6.61456L19.8698 5.13019C20.8073 6.06769 21.5493 7.1656 22.0958 8.42394C22.643 9.68297 22.9166 11.0416 22.9166 12.5C22.9166 13.941 22.643 15.2906 22.0958 16.5489C21.5493 17.808 20.8073 18.9149 19.8698 19.8698Z" fill="#4C6A4B" fill-opacity="0.6"/>
</g>
</svg>
