<svg width="25" height="25" viewBox="0 0 25 25" fill="none" xmlns="http://www.w3.org/2000/svg">
<mask id="mask0_30_62" style="mask-type:alpha" maskUnits="userSpaceOnUse" x="0" y="0" width="25" height="25">
<rect width="25" height="25" fill="#D9D9D9"/>
</mask>
<g mask="url(#mask0_30_62)">
<path d="M5.13023 19.8698C4.19273 18.9149 3.45071 17.808 2.90419 16.5489C2.35696 15.2906 2.08335 13.941 2.08335 12.5C2.08335 11.4236 2.23544 10.408 2.5396 9.45311C2.84308 8.49825 3.26391 7.60416 3.8021 6.77082L1.43231 4.40103L2.91669 2.91666L22.0834 22.0833L20.599 23.5677L8.46356 11.4323C8.42884 11.6059 8.39863 11.7795 8.37294 11.9531C8.34655 12.1267 8.33335 12.309 8.33335 12.5C8.33335 13.0729 8.44169 13.6111 8.65835 14.1146C8.87571 14.618 9.17537 15.0608 9.55731 15.4427L8.07294 16.9271C7.51738 16.3542 7.07467 15.6899 6.74481 14.9344C6.41495 14.1795 6.25002 13.368 6.25002 12.5C6.25002 12.0139 6.3021 11.5451 6.40627 11.0937C6.51044 10.6424 6.65801 10.217 6.84898 9.8177L5.31252 8.28124C4.94794 8.90624 4.66565 9.57048 4.46565 10.2739C4.26634 10.9767 4.16669 11.7187 4.16669 12.5C4.16669 13.6632 4.3837 14.7483 4.81773 15.7552C5.25176 16.7621 5.85071 17.6389 6.6146 18.3854L5.13023 19.8698ZM21.1979 18.2292L19.6875 16.7187C20.0521 16.0937 20.334 15.4295 20.5334 14.726C20.7334 14.0233 20.8334 13.2812 20.8334 12.5C20.8334 11.3368 20.6163 10.2517 20.1823 9.24478C19.7483 8.23784 19.1493 7.3611 18.3854 6.61457L19.8698 5.1302C20.8073 6.0677 21.5493 7.16562 22.0959 8.42395C22.6431 9.68298 22.9167 11.0417 22.9167 12.5C22.9167 13.559 22.7646 14.5701 22.4604 15.5333C22.157 16.4972 21.7361 17.3958 21.1979 18.2292ZM18.1511 15.1823L16.5365 13.5677C16.5712 13.3941 16.6018 13.2205 16.6281 13.0469C16.6538 12.8733 16.6667 12.691 16.6667 12.5C16.6667 11.9271 16.5584 11.3889 16.3417 10.8854C16.1243 10.3819 15.8247 9.93923 15.4427 9.55728L16.9271 8.07291C17.4827 8.62846 17.9254 9.28367 18.2552 10.0385C18.5851 10.7941 18.75 11.6146 18.75 12.5C18.75 12.9861 18.6979 13.4549 18.5938 13.9062C18.4896 14.3576 18.342 14.783 18.1511 15.1823Z" fill="#4C6A4B" fill-opacity="0.6"/>
</g>
</svg>
