<svg width="36" height="36" viewBox="0 0 36 36" fill="none" xmlns="http://www.w3.org/2000/svg">
<g clip-path="url(#clip0_26_43)">
<path d="M13.8668 27.977C13.7918 27.9458 13.7138 27.9308 13.6376 27.9308C13.4018 27.9308 13.1786 28.0706 13.0826 28.3017L12.1646 30.5199C12.0381 30.8258 12.1833 31.1768 12.4898 31.3035C12.7958 31.4301 13.1468 31.2848 13.2734 30.9783L14.1914 28.7607C14.3181 28.4547 14.1728 28.1037 13.8668 27.977Z" fill="black"/>
<path d="M18.0002 27.5997C23.2933 27.5997 27.6 23.2929 27.6 17.9998C27.6 12.7067 23.2933 8.39998 18.0002 8.39998C12.7064 8.39998 8.40035 12.7067 8.40035 17.9998C8.40028 23.2929 12.7064 27.5997 18.0002 27.5997ZM18.0002 9.59992C22.6315 9.59992 26.4001 13.3678 26.4001 17.9998C26.4001 22.6317 22.6315 26.3997 18.0002 26.3997C13.3683 26.3997 9.60029 22.6318 9.60029 17.9998C9.60029 13.3678 13.3682 9.59992 18.0002 9.59992Z" fill="black"/>
<path d="M12.0284 32.411C11.954 32.3804 11.8766 32.3655 11.8004 32.3655C11.5646 32.3655 11.3408 32.5059 11.2454 32.738L10.2453 35.1716C10.1193 35.4782 10.2656 35.8286 10.5723 35.9546C10.8783 36.0812 11.2293 35.9342 11.3553 35.6276L12.3554 33.194C12.4808 32.8874 12.3351 32.537 12.0284 32.411Z" fill="black"/>
<path d="M24.7537 32.738C24.6577 32.5064 24.4345 32.3659 24.1981 32.3659C24.1225 32.3659 24.0451 32.3804 23.97 32.4115C23.664 32.5375 23.5177 32.8879 23.6437 33.1945L24.645 35.6276C24.771 35.9342 25.1208 36.0811 25.428 35.9546C25.7347 35.8279 25.8804 35.4776 25.755 35.1716L24.7537 32.738Z" fill="black"/>
<path d="M18.0002 28.7996C17.6684 28.7996 17.4002 29.0684 17.4002 29.3996V33.5996C17.4002 33.9307 17.6684 34.1995 18.0002 34.1995C18.3314 34.1995 18.6002 33.9307 18.6002 33.5996V29.3996C18.6002 29.0684 18.3314 28.7996 18.0002 28.7996Z" fill="black"/>
<path d="M23.835 30.5192L22.9164 28.3017C22.8204 28.0707 22.5972 27.9315 22.362 27.9315C22.2852 27.9315 22.2072 27.9464 22.1322 27.9771C21.8262 28.1043 21.681 28.4553 21.8076 28.7613L22.7268 30.9788C22.854 31.2848 23.2044 31.43 23.5104 31.3035C23.817 31.1762 23.9622 30.8258 23.835 30.5192Z" fill="black"/>
<path d="M6.60029 18.5998C6.93145 18.5998 7.20026 18.331 7.20026 17.9998C7.20026 17.6687 6.93145 17.3999 6.60029 17.3999H1.80033C1.46853 17.3999 1.20036 17.6687 1.20036 17.9998C1.20036 18.331 1.46853 18.5998 1.80033 18.5998H6.60029Z" fill="black"/>
<path d="M26.2735 25.5489C26.1558 25.4313 26.0028 25.3731 25.8493 25.3731C25.6957 25.3731 25.5421 25.4313 25.4251 25.5489C25.1905 25.7829 25.1905 26.1627 25.4251 26.3973L28.8187 29.7909C29.0533 30.0254 29.4325 30.0254 29.667 29.7909C29.9017 29.5569 29.9017 29.177 29.667 28.9425L26.2735 25.5489Z" fill="black"/>
<path d="M3.03336 23.5989C2.95714 23.5989 2.88036 23.6134 2.80534 23.6439L0.371784 24.6448C0.065788 24.7708 -0.0806005 25.1217 0.0453978 25.4277C0.170834 25.7344 0.521828 25.8813 0.828386 25.7548L3.26194 24.754C3.56793 24.628 3.71432 24.277 3.58833 23.971C3.49291 23.7387 3.26911 23.5989 3.03336 23.5989Z" fill="black"/>
<path d="M8.02224 22.1325C7.92626 21.9009 7.70302 21.7617 7.46783 21.7617C7.39105 21.7617 7.31301 21.7767 7.23805 21.8079L5.02106 22.7265C4.71506 22.8532 4.56924 23.2041 4.69643 23.5107C4.82362 23.8167 5.17525 23.9619 5.48005 23.8353L7.69761 22.9161C8.00367 22.7895 8.14887 22.4385 8.02224 22.1325Z" fill="black"/>
<path d="M10.1511 25.5489C10.0335 25.4313 9.88046 25.3731 9.7269 25.3731C9.57327 25.3731 9.41971 25.4313 9.30271 25.5489L6.33276 28.5182C6.09876 28.7529 6.09876 29.1326 6.33276 29.3666C6.56739 29.6012 6.94714 29.6012 7.18114 29.3666L10.1511 26.3973C10.385 26.1626 10.385 25.7829 10.1511 25.5489Z" fill="black"/>
<path d="M14.0816 24.0411C14.36 24.2218 14.7314 24.1432 14.912 23.8654C15.0925 23.5875 15.0134 23.2155 14.7356 23.0355C13.8494 22.4595 13.1282 21.6586 12.6494 20.719C12.5432 20.5108 12.3326 20.3914 12.1142 20.3914C12.023 20.3914 11.93 20.4124 11.8424 20.4568C11.5472 20.6074 11.4302 20.9686 11.5802 21.2638C12.1544 22.3905 13.0196 23.3511 14.0816 24.0411Z" fill="black"/>
<path d="M11.2478 3.26457C11.3756 3.57 11.7272 3.71337 12.0326 3.58674C12.3386 3.45891 12.4826 3.10735 12.3554 2.80136L11.354 0.406195C11.2574 0.176417 11.0343 0.0372014 10.7996 0.0372014C10.7228 0.0372014 10.6442 0.0521767 10.5687 0.0840278C10.2633 0.211854 10.1187 0.563413 10.2465 0.868846L11.2478 3.26457Z" fill="black"/>
<path d="M9.30266 10.2755C9.53666 10.5095 9.91648 10.5095 10.151 10.2755C10.385 10.0408 10.385 9.66109 10.151 9.42646L6.75689 6.03295C6.6399 5.91532 6.48626 5.85717 6.3327 5.85717C6.1797 5.85717 6.02607 5.91539 5.90851 6.03295C5.67452 6.26694 5.67452 6.64677 5.90851 6.88133L9.30266 10.2755Z" fill="black"/>
<path d="M12.1646 5.47973L13.0832 7.69848C13.2104 8.00385 13.5608 8.1503 13.8674 8.02304C14.1734 7.89585 14.3186 7.54485 14.192 7.23885L13.2734 5.02067C13.1774 4.78969 12.9542 4.64984 12.7184 4.64984C12.6422 4.64984 12.5648 4.66482 12.4892 4.69604C12.1832 4.82274 12.038 5.17374 12.1646 5.47973Z" fill="black"/>
<path d="M22.1317 8.02255C22.4383 8.15037 22.7893 8.00392 22.9159 7.69792L23.835 5.47973C23.9622 5.17373 23.817 4.82274 23.5104 4.69611C23.4354 4.66489 23.3574 4.64991 23.2812 4.64991C23.0454 4.64991 22.8222 4.78913 22.7268 5.02074L21.807 7.23892C21.6805 7.54492 21.8257 7.89591 22.1317 8.02255Z" fill="black"/>
<path d="M18.0002 7.19991C18.3314 7.19991 18.6002 6.9311 18.6002 6.59994V1.79998C18.6002 1.46881 18.3314 1.20001 18.0002 1.20001C17.6684 1.20001 17.4002 1.46881 17.4002 1.79998V6.59994C17.4002 6.9311 17.6684 7.19991 18.0002 7.19991Z" fill="black"/>
<path d="M5.02118 13.2731L7.23873 14.1917C7.54536 14.3183 7.89572 14.1737 8.02292 13.8671C8.14955 13.5611 8.00428 13.2101 7.69829 13.0834L5.4801 12.1643C5.40508 12.133 5.32774 12.1181 5.25089 12.1181C5.01569 12.1181 4.79252 12.2578 4.69648 12.4889C4.56936 12.7949 4.71511 13.1459 5.02118 13.2731Z" fill="black"/>
<path d="M0.372355 11.3549L2.80534 12.3545C3.11134 12.4811 3.46234 12.3341 3.58834 12.0275C3.71433 11.7215 3.56794 11.3711 3.26132 11.2451L0.828324 10.245C0.753935 10.2144 0.676523 10.2 0.600305 10.2C0.36448 10.2 0.140678 10.3397 0.0453358 10.572C-0.0805922 10.8785 0.0657966 11.2289 0.372355 11.3549Z" fill="black"/>
<path d="M23.9719 3.58856C24.2779 3.71455 24.6289 3.56816 24.7549 3.26217L25.755 0.827984C25.8804 0.521355 25.7347 0.170992 25.428 0.0449934C25.3536 0.0144079 25.2762 -6.91414e-06 25.2 -6.91414e-06C24.9642 -6.91414e-06 24.7404 0.139773 24.645 0.372012L23.6449 2.80556C23.5189 3.11219 23.6652 3.46256 23.9719 3.58856Z" fill="black"/>
<path d="M34.2 18.5998C34.5311 18.5998 34.7999 18.331 34.7999 17.9998C34.7999 17.6687 34.5311 17.3999 34.2 17.3999H29.4C29.0682 17.3999 28.8 17.6687 28.8 17.9998C28.8 18.331 29.0682 18.5998 29.4 18.5998H34.2Z" fill="black"/>
<path d="M30.9792 22.7265L28.761 21.8079C28.686 21.7767 28.608 21.7617 28.5318 21.7617C28.2959 21.7617 28.0728 21.9015 27.9774 22.1325C27.8502 22.4385 27.9954 22.7895 28.302 22.9162L30.5195 23.8353C30.8267 23.962 31.1765 23.8161 31.3037 23.5107C31.4304 23.2041 31.2852 22.8532 30.9792 22.7265Z" fill="black"/>
<path d="M27.9768 13.8664C28.1035 14.173 28.455 14.3182 28.7604 14.1916L30.9786 13.273C31.2846 13.1464 31.4305 12.7954 31.3038 12.4894C31.2078 12.2584 30.9846 12.1185 30.7489 12.1185C30.6726 12.1185 30.5947 12.1335 30.5196 12.1641L28.3015 13.0827C27.9954 13.2094 27.8496 13.5604 27.9768 13.8664Z" fill="black"/>
<path d="M25.4251 10.2755C25.6591 10.5095 26.0389 10.5095 26.2735 10.2755L29.667 6.88133C29.9017 6.6467 29.9017 6.26694 29.667 6.03295C29.55 5.91532 29.3964 5.85717 29.2429 5.85717C29.0892 5.85717 28.9357 5.91539 28.8187 6.03295L25.4251 9.42646C25.1905 9.66109 25.1905 10.0409 25.4251 10.2755Z" fill="black"/>
</g>
<defs>
<clipPath id="clip0_26_43">
<rect width="36" height="36" fill="white" transform="translate(36 36) rotate(-180)"/>
</clipPath>
</defs>
</svg>
