<svg width="24" height="24" viewBox="0 0 24 24" fill="none" xmlns="http://www.w3.org/2000/svg">
<mask id="mask0_201_77" style="mask-type:alpha" maskUnits="userSpaceOnUse" x="0" y="0" width="24" height="24">
<rect width="24" height="24" fill="#D9D9D9"/>
</mask>
<g mask="url(#mask0_201_77)">
<path d="M12 22C9.88333 22 8.021 21.2627 6.413 19.788C4.80433 18.3127 4 16.3167 4 13.8C4 12.1333 4.66267 10.321 5.988 8.363C7.31267 6.40433 9.31667 4.28333 12 2C14.6833 4.28333 16.6877 6.40433 18.013 8.363C19.3377 10.321 20 12.1333 20 13.8C20 16.3167 19.1957 18.3127 17.587 19.788C15.979 21.2627 14.1167 22 12 22ZM12 20C13.6833 20 15.104 19.425 16.262 18.275C17.4207 17.125 18 15.6333 18 13.8C18 12.6167 17.5083 11.2623 16.525 9.737C15.5417 8.21233 14.0333 6.51667 12 4.65C9.96667 6.51667 8.45833 8.21233 7.475 9.737C6.49167 11.2623 6 12.6167 6 13.8C6 15.6333 6.579 17.125 7.737 18.275C8.89567 19.425 10.3167 20 12 20ZM12.275 19C12.475 18.9833 12.646 18.9043 12.788 18.763C12.9293 18.621 13 18.45 13 18.25C13 18.0167 12.925 17.8293 12.775 17.688C12.625 17.546 12.4333 17.4833 12.2 17.5C11.5167 17.55 10.7917 17.3627 10.025 16.938C9.25833 16.5127 8.775 15.7417 8.575 14.625C8.54167 14.4417 8.454 14.2917 8.312 14.175C8.17067 14.0583 8.00833 14 7.825 14C7.59167 14 7.4 14.0873 7.25 14.262C7.1 14.4373 7.05 14.6417 7.1 14.875C7.38333 16.3917 8.05 17.475 9.1 18.125C10.15 18.775 11.2083 19.0667 12.275 19Z" fill="white"/>
</g>
</svg>
