<svg width="35" height="33" viewBox="0 0 35 33" fill="none" xmlns="http://www.w3.org/2000/svg">
<path d="M10.0367 21.1029C10.0367 22.1323 10.8088 23.4191 11.8382 24.4485C13.125 25.4779 14.4117 25.9926 15.4412 25.9926" stroke="black" stroke-linecap="round"/>
<mask id="mask0_24_15" style="mask-type:alpha" maskUnits="userSpaceOnUse" x="0" y="0" width="32" height="33">
<rect width="31.3971" height="32.5144" fill="#D9D9D9"/>
</mask>
<g mask="url(#mask0_24_15)">
<path d="M16.4697 29.8049C13.7007 29.8049 11.2643 28.8059 9.16073 26.8081C7.05626 24.8094 6.00402 22.1053 6.00402 18.6958C6.00402 16.4378 6.87093 13.9825 8.60475 11.3299C10.3377 8.67637 12.9593 5.80291 16.4697 2.70953C19.9801 5.80291 22.6022 8.67637 24.336 11.3299C26.0689 13.9825 26.9354 16.4378 26.9354 18.6958C26.9354 22.1053 25.8832 24.8094 23.7787 26.8081C21.6751 28.8059 19.2388 29.8049 16.4697 29.8049ZM16.4697 28.2573C18.6719 28.2573 21.6198 26.8409 23.1347 25.2829C24.6505 23.7249 25.4482 21.1795 25.4482 18.6958C25.4482 17.0926 25.0651 15.1546 23.7787 13.0881C22.0685 10.3409 19.1297 7.15583 16.4697 4.62693C13.8097 7.15583 10.7055 10.6585 9.41914 12.7241C8.13273 14.7905 7.60142 17.5656 7.60142 19.1687C7.60142 21.6525 8.73047 24.3859 10.2454 25.9439C11.7612 27.5019 14.2676 28.2573 16.4697 28.2573Z" fill="#1C1B1F"/>
</g>
<ellipse cx="25.4779" cy="9.52206" rx="7.46324" ry="6.94853" fill="white"/>
<mask id="mask1_24_15" style="mask-type:alpha" maskUnits="userSpaceOnUse" x="15" y="0" width="20" height="19">
<rect x="15.9559" y="0.514702" width="19.0441" height="18.0147" fill="#D9D9D9"/>
</mask>
<g mask="url(#mask1_24_15)">
<path d="M28.0965 13.0499L29.2074 11.9991L26.2715 9.22181V5.76899H24.6845V9.8223L28.0965 13.0499ZM25.478 17.0282C24.3803 17.0282 23.3487 16.831 22.3833 16.4367C21.4179 16.0429 20.5781 15.5082 19.8639 14.8326C19.1498 14.1571 18.5845 13.3627 18.1682 12.4494C17.7513 11.5362 17.5429 10.5604 17.5429 9.52206C17.5429 8.48371 17.7513 7.50791 18.1682 6.59467C18.5845 5.68142 19.1498 4.88702 19.8639 4.21147C20.5781 3.53592 21.4179 3.00098 22.3833 2.60666C23.3487 2.21284 24.3803 2.01593 25.478 2.01593C26.5756 2.01593 27.6072 2.21284 28.5726 2.60666C29.5381 3.00098 30.3778 3.53592 31.092 4.21147C31.8062 4.88702 32.3714 5.68142 32.7877 6.59467C33.2046 7.50791 33.413 8.48371 33.413 9.52206C33.413 10.5604 33.2046 11.5362 32.7877 12.4494C32.3714 13.3627 31.8062 14.1571 31.092 14.8326C30.3778 15.5082 29.5381 16.0429 28.5726 16.4367C27.6072 16.831 26.5756 17.0282 25.478 17.0282ZM25.478 15.527C27.2369 15.527 28.7348 14.9422 29.9716 13.7728C31.2079 12.6028 31.826 11.1859 31.826 9.52206C31.826 7.8582 31.2079 6.44129 29.9716 5.27134C28.7348 4.10188 27.2369 3.51716 25.478 3.51716C23.719 3.51716 22.2214 4.10188 20.9851 5.27134C19.7483 6.44129 19.1299 7.8582 19.1299 9.52206C19.1299 11.1859 19.7483 12.6028 20.9851 13.7728C22.2214 14.9422 23.719 15.527 25.478 15.527Z" fill="#1C1B1F"/>
</g>
</svg>
